<svg xmlns="http://www.w3.org/2000/svg" viewBox="0 0 1200 210" role="img" aria-label="Imran A digital city footer"><defs><linearGradient id="bg" x2="1" y2="1"><stop stop-color="#020204"/><stop offset=".55" stop-color="#090713"/><stop offset="1" stop-color="#030d13"/></linearGradient><linearGradient id="hot" x2="1"><stop stop-color="#ff2d55"/><stop offset=".48" stop-color="#f43f5e"/><stop offset="1" stop-color="#00e5ff"/></linearGradient><filter id="glow"><feGaussianBlur stdDeviation="4" result="b"/><feMerge><feMergeNode in="b"/><feMergeNode in="SourceGraphic"/></feMerge></filter><filter id="soft"><feGaussianBlur stdDeviation="28"/></filter><pattern id="grid" width="38" height="38" patternUnits="userSpaceOnUse"><path d="M38 0H0V38" fill="none" stroke="#38bdf8" stroke-opacity=".08"/></pattern><style><![CDATA[.pulse{animation:pulse 2.8s ease-in-out infinite}.float{animation:float 5s ease-in-out infinite}.scan{animation:scan 5s linear infinite}.dash{stroke-dasharray:8 13;animation:dash 3.5s linear infinite}@keyframes pulse{50%{opacity:.38}}@keyframes float{50%{transform:translateY(-7px)}}@keyframes scan{from{transform:translateY(-180px)}to{transform:translateY(700px)}}@keyframes dash{to{stroke-dashoffset:-105}}]]></style></defs><rect width="1200" height="210" rx="22" fill="url(#bg)"/><rect width="1200" height="210" rx="22" fill="url(#grid)"/><g opacity=".7"><path d="M45 164L120 115V164L187 82V164L245 125V164L330 58V164L400 104V164L480 78V164L555 130V164L635 66V164L705 108V164L785 45V164L860 112V164L940 73V164L1015 123V164L1095 80V164L1150 120V164" fill="#07101a" stroke="#234150"/></g><path d="M40 165H1160" stroke="url(#hot)" stroke-width="3" class="dash" filter="url(#glow)"/><text x="600" y="63" text-anchor="middle" fill="url(#hot)" font-family="Arial" font-size="29" font-weight="700" letter-spacing="7">IMRAN A</text><text x="600" y="94" text-anchor="middle" fill="#7ce6f1" font-family="Arial" font-size="14" letter-spacing="4">SOFTWARE ENGINEER  •  AI ENGINEER</text><text x="600" y="123" text-anchor="middle" fill="#b895f4" font-family="Arial" font-size="12" letter-spacing="5">BUILD • LEARN • SHIP</text><g fill="#00e5ff"><circle cx="160" cy="145" r="3" class="pulse"/><circle cx="405" cy="112" r="3" class="pulse"/><circle cx="920" cy="137" r="3" class="pulse"/><circle cx="1080" cy="98" r="3" class="pulse"/></g></svg>