<?xml version="1.0" encoding="UTF-8"?>
<svg width="1200" height="140" viewBox="0 0 1200 140" xmlns="http://www.w3.org/2000/svg" role="img" aria-label="footer" xmlns:c2pa="http://c2pa.org/manifest"><metadata><c2pa:manifest>AAAWgmp1bWIAAAAeanVtZGMycGEAEQAQgAAAqgA4m3EDYzJwYQAAABZcanVtYgAAAEdqdW1kYzJtYQARABCAAACqADibcQN1cm46YzJwYToxMzcwM2JkMi1jYzljLTQxNTQtOWY5Mi0xZDkyN2I4MGMwMjIAAAADl2p1bWIAAAApanVtZGMyYXMAEQAQgAAAqgA4m3EDYzJwYS5hc3NlcnRpb25zAAAAALxqdW1iAAAARGp1bWRjYm9yABEAEIAAAKoAOJtxE2MycGEuaW5ncmVkaWVudC52MwAAAAAYYzJzaJ8qCmMHipjXHFXKrYxpR6EAAABwY2JvcqNpZGM6Zm9ybWF0bWltYWdlL3N2Zyt4bWxqaW5zdGFuY2VJRHgseG1wOmlpZDo3ZmZiOWE0YS1lNWYzLTRhMWItYTBlNS1jYzJiOGE5ZWQwYWJscmVsYXRpb25zaGlwaHBhcmVudE9mAAAB4mp1bWIAAABBanVtZGNib3IAEQAQgAAAqgA4m3ETYzJwYS5hY3Rpb25zLnYyAAAAABhjMnNovrrPXC3P0jtnvf96g8K1SAAAAZljYm9yomdhY3Rpb25zgqJmYWN0aW9ua2MycGEub3BlbmVkanBhcmFtZXRlcnOha2luZ3JlZGllbnRzgaJjdXJseC1zZWxmI2p1bWJmPWMycGEuYXNzZXJ0aW9ucy9jMnBhLmluZ3JlZGllbnQudjNkaGFzaFggzdQwN+F6Pg/UvHuC7NNAhO4VIqYL/NqsKLZIf7VPwhikZmFjdGlvbngdY29tLmFudGhyb3BpYy5jbGF1ZGUucHJvdmlkZWRqcGFyYW1ldGVyc6F4H2NvbS5hbnRocm9waWMub3JpZ2luLWNvbmZpZGVuY2VndW5rbm93bmtkZXNjcmlwdGlvbnhmQ2xhdWRlIHByb3ZpZGVkIHRoaXMgZmlsZSBhdCB0aGUgcmVxdWVzdCBvZiBhIHVzZXIgYW5kIG1heSBoYXZlIGNyZWF0ZWQgb3IgbW9kaWZpZWQgdGhlIGZpbGUgY29udGVudHMubXNvZnR3YXJlQWdlbnShZG5hbWVmQ2xhdWRlcmFsbEFjdGlvbnNJbmNsdWRlZPUAAADIanVtYgAAAEBqdW1kY2JvcgARABCAAACqADibcRNjMnBhLmhhc2guZGF0YQAAAAAYYzJzaPb6w7EpheU8KJg+sg6nt14AAACAY2JvcqVjYWxnZnNoYTI1NmNwYWRNAAAAAAAAAAAAAAAAAGRoYXNoWCCb1mSCzrYmmpQZHZ9dLYOLZIPtPrWHIRrTZecvR3azomRuYW1lbmp1bWJmIG1hbmlmZXN0amV4Y2x1c2lvbnOBomVzdGFydBjeZmxlbmd0aBkeBAAAAj5qdW1iAAAAJ2p1bWRjMmNsABEAEIAAAKoAOJtxA2MycGEuY2xhaW0udjIAAAACD2Nib3KlY2FsZ2ZzaGEyNTZpc2lnbmF0dXJleE1zZWxmI2p1bWJmPS9jMnBhL3VybjpjMnBhOjEzNzAzYmQyLWNjOWMtNDE1NC05ZjkyLTFkOTI3YjgwYzAyMi9jMnBhLnNpZ25hdHVyZWppbnN0YW5jZUlEeCx4bXA6aWlkOmYzMDg3OWJmLWIwM2YtNGMzMy1iY2JlLTA3Y2RjYjJmZWYyYnJjcmVhdGVkX2Fzc2VydGlvbnODomN1cmx4LXNlbGYjanVtYmY9YzJwYS5hc3NlcnRpb25zL2MycGEuaW5ncmVkaWVudC52M2RoYXNoWCDN1DA34Xo+D9S8e4Ls00CE7hUipgv82qwotkh/tU/CGKJjdXJseCpzZWxmI2p1bWJmPWMycGEuYXNzZXJ0aW9ucy9jMnBhLmFjdGlvbnMudjJkaGFzaFgg3CulCqTAt+qpAXHtxgZYeoGn9MU4pT/YU1docEzAhliiY3VybHgpc2VsZiNqdW1iZj1jMnBhLmFzc2VydGlvbnMvYzJwYS5oYXNoLmRhdGFkaGFzaFggEpfQfiaQSHUnLHvM+IYa/J2s7S6/s/vNiw6+PXAVLp90Y2xhaW1fZ2VuZXJhdG9yX2luZm+jZG5hbWVvQW50aHJvcGljIEZpbGVzZ3ZlcnNpb25lMS4wLjBrc3BlY1ZlcnNpb25lMi40LjAAABA4anVtYgAAAChqdW1kYzJjcwARABCAAACqADibcQNjMnBhLnNpZ25hdHVyZQAAABAIY2JvctKEWQISogEmGCFZAgowggIGMIIBjaADAgECAhRA5aAK7sI50L64g/oGQgU9Z1UTADAKBggqhkjOPQQDAzBJMRcwFQYDVQQKEw5BbnRocm9waWMsIFBCQzEuMCwGA1UEAxMlQW50aHJvcGljIENvbnRlbnQgQ3JlZGVudGlhbHMgUm9vdCBDQTAeFw0yNjA4MDcxODQzNTZaFw0yODA4MDYxOTQzNTZaMEQxFzAVBgNVBAoTDkFudGhyb3BpYywgUEJDMSkwJwYDVQQDEyBBbnRocm9waWMgQ2xhdWRlIENvbnRlbnQgU2lnbmluZzBZMBMGByqGSM49AgEGCCqGSM49AwEHA0IABJh6CmvLUBgFFNU0vUKlOVtE6djd17L5SuwX0LemFisBM3dkd/3cyjxFA3Qo5S46fX0/ihY0VZ7mfb9KF703t5OjWDBWMA4GA1UdDwEB/wQEAwIHgDAVBgNVHSUEDjAMBgorBgEEAYPoXgIBMAwGA1UdEwEB/wQCMAAwHwYDVR0jBBgwFoAUzlHiBIFOZFsj+OPEz5o+nMHXXMIwCgYIKoZIzj0EAwMDZwAwZAIwMXMdFJ4BetLLVY7ORuE9noqbbAZOZn/aArXyTwFAZfKrPzxF2vPoJNf1+UCdg1XGAjBwX1zd9WGqYkqmL5SFqw1QySjr1zJfpJM9+1rdDwSPLMOPOjKuiXjoU/pUUeG9RwmhY3BhZFkNngAAAAAAAAAAAAAAAAAAAAAAAAAAAAAAAAAAAAAAAAAAAAAAAAAAAAAAAAAAAAAAAAAAAAAAAAAAAAAAAAAAAAAAAAAAAAAAAAAAAAAAAAAAAAAAAAAAAAAAAAAAAAAAAAAAAAAAAAAAAAAAAAAAAAAAAAAAAAAAAAAAAAAAAAAAAAAAAAAAAAAAAAAAAAAAAAAAAAAAAAAAAAAAAAAAAAAAAAAAAAAAAAAAAAAAAAAAAAAAAAAAAAAAAAAAAAAAAAAAAAAAAAAAAAAAAAAAAAAAAAAAAAAAAAAAAAAAAAAAAAAAAAAAAAAAAAAAAAAAAAAAAAAAAAAAAAAAAAAAAAAAAAAAAAAAAAAAAAAAAAAAAAAAAAAAAAAAAAAAAAAAAAAAAAAAAAAAAAAAAAAAAAAAAAAAAAAAAAAAAAAAAAAAAAAAAAAAAAAAAAAAAAAAAAAAAAAAAAAAAAAAAAAAAAAAAAAAAAAAAAAAAAAAAAAAAAAAAAAAAAAAAAAAAAAAAAAAAAAAAAAAAAAAAAAAAAAAAAAAAAAAAAAAAAAAAAAAAAAAAAAAAAAAAAAAAAAAAAAAAAAAAAAAAAAAAAAAAAAAAAAAAAAAAAAAAAAAAAAAAAAAAAAAAAAAAAAAAAAAAAAAAAAAAAAAAAAAAAAAAAAAAAAAAAAAAAAAAAAAAAAAAAAAAAAAAAAAAAAAAAAAAAAAAAAAAAAAAAAAAAAAAAAAAAAAAAAAAAAAAAAAAAAAAAAAAAAAAAAAAAAAAAAAAAAAAAAAAAAAAAAAAAAAAAAAAAAAAAAAAAAAAAAAAAAAAAAAAAAAAAAAAAAAAAAAAAAAAAAAAAAAAAAAAAAAAAAAAAAAAAAAAAAAAAAAAAAAAAAAAAAAAAAAAAAAAAAAAAAAAAAAAAAAAAAAAAAAAAAAAAAAAAAAAAAAAAAAAAAAAAAAAAAAAAAAAAAAAAAAAAAAAAAAAAAAAAAAAAAAAAAAAAAAAAAAAAAAAAAAAAAAAAAAAAAAAAAAAAAAAAAAAAAAAAAAAAAAAAAAAAAAAAAAAAAAAAAAAAAAAAAAAAAAAAAAAAAAAAAAAAAAAAAAAAAAAAAAAAAAAAAAAAAAAAAAAAAAAAAAAAAAAAAAAAAAAAAAAAAAAAAAAAAAAAAAAAAAAAAAAAAAAAAAAAAAAAAAAAAAAAAAAAAAAAAAAAAAAAAAAAAAAAAAAAAAAAAAAAAAAAAAAAAAAAAAAAAAAAAAAAAAAAAAAAAAAAAAAAAAAAAAAAAAAAAAAAAAAAAAAAAAAAAAAAAAAAAAAAAAAAAAAAAAAAAAAAAAAAAAAAAAAAAAAAAAAAAAAAAAAAAAAAAAAAAAAAAAAAAAAAAAAAAAAAAAAAAAAAAAAAAAAAAAAAAAAAAAAAAAAAAAAAAAAAAAAAAAAAAAAAAAAAAAAAAAAAAAAAAAAAAAAAAAAAAAAAAAAAAAAAAAAAAAAAAAAAAAAAAAAAAAAAAAAAAAAAAAAAAAAAAAAAAAAAAAAAAAAAAAAAAAAAAAAAAAAAAAAAAAAAAAAAAAAAAAAAAAAAAAAAAAAAAAAAAAAAAAAAAAAAAAAAAAAAAAAAAAAAAAAAAAAAAAAAAAAAAAAAAAAAAAAAAAAAAAAAAAAAAAAAAAAAAAAAAAAAAAAAAAAAAAAAAAAAAAAAAAAAAAAAAAAAAAAAAAAAAAAAAAAAAAAAAAAAAAAAAAAAAAAAAAAAAAAAAAAAAAAAAAAAAAAAAAAAAAAAAAAAAAAAAAAAAAAAAAAAAAAAAAAAAAAAAAAAAAAAAAAAAAAAAAAAAAAAAAAAAAAAAAAAAAAAAAAAAAAAAAAAAAAAAAAAAAAAAAAAAAAAAAAAAAAAAAAAAAAAAAAAAAAAAAAAAAAAAAAAAAAAAAAAAAAAAAAAAAAAAAAAAAAAAAAAAAAAAAAAAAAAAAAAAAAAAAAAAAAAAAAAAAAAAAAAAAAAAAAAAAAAAAAAAAAAAAAAAAAAAAAAAAAAAAAAAAAAAAAAAAAAAAAAAAAAAAAAAAAAAAAAAAAAAAAAAAAAAAAAAAAAAAAAAAAAAAAAAAAAAAAAAAAAAAAAAAAAAAAAAAAAAAAAAAAAAAAAAAAAAAAAAAAAAAAAAAAAAAAAAAAAAAAAAAAAAAAAAAAAAAAAAAAAAAAAAAAAAAAAAAAAAAAAAAAAAAAAAAAAAAAAAAAAAAAAAAAAAAAAAAAAAAAAAAAAAAAAAAAAAAAAAAAAAAAAAAAAAAAAAAAAAAAAAAAAAAAAAAAAAAAAAAAAAAAAAAAAAAAAAAAAAAAAAAAAAAAAAAAAAAAAAAAAAAAAAAAAAAAAAAAAAAAAAAAAAAAAAAAAAAAAAAAAAAAAAAAAAAAAAAAAAAAAAAAAAAAAAAAAAAAAAAAAAAAAAAAAAAAAAAAAAAAAAAAAAAAAAAAAAAAAAAAAAAAAAAAAAAAAAAAAAAAAAAAAAAAAAAAAAAAAAAAAAAAAAAAAAAAAAAAAAAAAAAAAAAAAAAAAAAAAAAAAAAAAAAAAAAAAAAAAAAAAAAAAAAAAAAAAAAAAAAAAAAAAAAAAAAAAAAAAAAAAAAAAAAAAAAAAAAAAAAAAAAAAAAAAAAAAAAAAAAAAAAAAAAAAAAAAAAAAAAAAAAAAAAAAAAAAAAAAAAAAAAAAAAAAAAAAAAAAAAAAAAAAAAAAAAAAAAAAAAAAAAAAAAAAAAAAAAAAAAAAAAAAAAAAAAAAAAAAAAAAAAAAAAAAAAAAAAAAAAAAAAAAAAAAAAAAAAAAAAAAAAAAAAAAAAAAAAAAAAAAAAAAAAAAAAAAAAAAAAAAAAAAAAAAAAAAAAAAAAAAAAAAAAAAAAAAAAAAAAAAAAAAAAAAAAAAAAAAAAAAAAAAAAAAAAAAAAAAAAAAAAAAAAAAAAAAAAAAAAAAAAAAAAAAAAAAAAAAAAAAAAAAAAAAAAAAAAAAAAAAAAAAAAAAAAAAAAAAAAAAAAAAAAAAAAAAAAAAAAAAAAAAAAAAAAAAAAAAAAAAAAAAAAAAAAAAAAAAAAAAAAAAAAAAAAAAAAAAAAAAAAAAAAAAAAAAAAAAAAAAAAAAAAAAAAAAAAAAAAAAAAAAAAAAAAAAAAAAAAAAAAAAAAAAAAAAAAAAAAAAAAAAAAAAAAAAAAAAAAAAAAAAAAAAAAAAAAAAAAAAAAAAAAAAAAAAAAAAAAAAAAAAAAAAAAAAAAAAAAAAAAAAAAAAAAAAAAAAAAAAAAAAAAAAAAAAAAAAAAAAAAAAAAAAAAAAAAAAAAAAAAAAAAAAAAAAAAAAAAAAAAAAAAAAAAAAAAAAAAAAAAAAAAAAAAAAAAAAAAAAAAAAAAAAAAAAAAAAAAAAAAAAAAAAAAAAAAAAAAAAAAAAAAAAAAAAAAAAAAAAAAAAAAAAAAAAAAAAAAAAAAAAAAAAAAAAAAAAAAAAAAAAAAAAAAAAAAAAAAAAAAAAAAAAAAAAAAAAAAAAAAAAAAAAAAAAAAAAAAAAAAAAAAAAAAAAAAAAAAAAAAAAAAAAAAAAAAAAAAAAAAAAAAAAAAAAAAAAAAAAAAAAAAAAAAAAAAAAAAAAAAAAAAAAAAAAAAAAAAAAAAAAAAAAAAAAAAAAAAAAAAAAAAAAAAAAAAAAAAAAAAAAAAAAAAAAAAAAAAAAAAAAAAAAAAAAAAAAAAAAAAAAAAAAAAAAAAAAAAAAAAAAAAAAAAAAAAAAAAAAAAAAAAAAAAAAAAAAAAAAAAAAAAAAAAAAAAAAAAAAAAAAAAAAAAAAAAAAAAAAAAAAAAAAAAAAAAAAAAAAAAAAAAAAAAAAAAAAAAAAAAAAAAAAAAAAAAAAAAAAAAAAAAAAAAAAAAAAAAAAAAAAAAAAAAAAAAAAAAAAAAAAAAAAAAAAAAAAAAAAAAAAAAAAAAAAAAAAAAAAAAAAAAAAAAAAAAAAAAAAAAAAAAAAAAAAAAAAAAAAAAAAAAAAAAAAAAAAAAAAAAAAAAAAAAAAAAAAAAAAAAAAAAAAAAAAAAAAAAAAAAAAAAAAAAAAAAAAAAAAAAAAAAAAAAAAAAAAAAAAAAAAAAAAAAAAAAAAAAAAAAAAAAAAAAAAAAAAAAAAAAAAAAAAAAAAAAAAAAAAAAAAAAAAAAAAAAAAAAAAAAAAAAAAAAAAAAAAAAAAAAAAAAAAAAAAAAAAAAAAAAAAAAAAAAAAAAAAAAAAAAAAAAAAAAAAAAAAAAAAAAAAAAAAAAAAAAAAAAAAAAAAAAAAAAAAAAAAAAAAAAAAAAAAAAAAAAAAAAAAAAAAAAAAAAAAAAAAAAAAAAAAAAAAAAAAAAAAAAAAAAAAAAAAAAAAAAAAAAAAAAAAAAAAAAAAAAAAAAAAAAAAAAAAAAAAAAAAAAAAAAAAAAAAAAAAAAAAAAAAAAAAAAAAAAAAAAAAAAAAAAAAAAAAAAAAAAAAAAAAAAAAAAAAAAAAAAAAAAAAAAAAAAAAAAAAAAAAAAAAAAAAAAAAAAAAAAAAAAAAAAAAAAAAAAAAAAAAAAAAAAAAAAAAAAAAAAAAAAAAAAAAAAAAAAAAAAAAAAAAAAAAAAAAAAAAAAAAAAAAAAAAAAAAAAAAAAAAAAAAAAAAAAAAAAAAAAAAAAAAAAAAAAAAAAAAAAAAAAAAAAAAAAAPZYQIY8vctUyIEjFhfOWP+EVQ0uuDjS4ljpOmupDqh0mypp6E8ajxKA2yrlBJom5hmIcWElG0ZEkHhSfW6FXguPzh4=</c2pa:manifest></metadata><defs><linearGradient id="f" x1="0" x2="1"><stop offset="0" stop-color="#00f0ff"/><stop offset="1" stop-color="#b44dff"/></linearGradient></defs>
<path d="M0 60 L0 60.0 L20 62.9 L40 65.7 L60 68.2 L80 70.4 L100 72.1 L120 73.3 L140 73.9 L160 73.9 L180 73.3 L200 72.1 L220 70.4 L240 68.2 L260 65.7 L280 62.9 L300 60.0 L320 57.1 L340 54.3 L360 51.8 L380 49.6 L400 47.9 L420 46.7 L440 46.1 L460 46.1 L480 46.7 L500 47.9 L520 49.6 L540 51.8 L560 54.3 L580 57.1 L600 60.0 L620 62.9 L640 65.7 L660 68.2 L680 70.4 L700 72.1 L720 73.3 L740 73.9 L760 73.9 L780 73.3 L800 72.1 L820 70.4 L840 68.2 L860 65.7 L880 62.9 L900 60.0 L920 57.1 L940 54.3 L960 51.8 L980 49.6 L1000 47.9 L1020 46.7 L1040 46.1 L1060 46.1 L1080 46.7 L1100 47.9 L1120 49.6 L1140 51.8 L1160 54.3 L1180 57.1 L1200 60.0 L1220 62.9 L1240 65.7 L1260 68.2 L1280 70.4 L1300 72.1 L1320 73.3 L1340 73.9 L1360 73.9 L1380 73.3 L1400 72.1 L1420 70.4 L1440 68.2 L1460 65.7 L1480 62.9 L1500 60.0 L1520 57.1 L1540 54.3 L1560 51.8 L1580 49.6 L1600 47.9 L1620 46.7 L1640 46.1 L1660 46.1 L1680 46.7 L1700 47.9 L1720 49.6 L1740 51.8 L1760 54.3 L1780 57.1 L1800 60.0 L1820 62.9 L1840 65.7 L1860 68.2 L1880 70.4 L1900 72.1 L1920 73.3 L1940 73.9 L1960 73.9 L1980 73.3 L2000 72.1 L2020 70.4 L2040 68.2 L2060 65.7 L2080 62.9 L2100 60.0 L2120 57.1 L2140 54.3 L2160 51.8 L2180 49.6 L2200 47.9 L2220 46.7 L2240 46.1 L2260 46.1 L2280 46.7 L2300 47.9 L2320 49.6 L2340 51.8 L2360 54.3 L2380 57.1 L2400 60.0 L2400 140 L0 140Z" fill="url(#f)" fill-opacity=".25"><animateTransform attributeName="transform" type="translate" values="0 0;-600 0" dur="9s" repeatCount="indefinite"/></path>
<path d="M0 80 L0 89.1 L20 87.4 L40 84.9 L60 82.0 L80 78.9 L100 75.8 L120 73.2 L140 71.3 L160 70.2 L180 70.1 L200 70.9 L220 72.6 L240 75.1 L260 78.0 L280 81.1 L300 84.2 L320 86.8 L340 88.7 L360 89.8 L380 89.9 L400 89.1 L420 87.4 L440 84.9 L460 82.0 L480 78.9 L500 75.8 L520 73.2 L540 71.3 L560 70.2 L580 70.1 L600 70.9 L620 72.6 L640 75.1 L660 78.0 L680 81.1 L700 84.2 L720 86.8 L740 88.7 L760 89.8 L780 89.9 L800 89.1 L820 87.4 L840 84.9 L860 82.0 L880 78.9 L900 75.8 L920 73.2 L940 71.3 L960 70.2 L980 70.1 L1000 70.9 L1020 72.6 L1040 75.1 L1060 78.0 L1080 81.1 L1100 84.2 L1120 86.8 L1140 88.7 L1160 89.8 L1180 89.9 L1200 89.1 L1220 87.4 L1240 84.9 L1260 82.0 L1280 78.9 L1300 75.8 L1320 73.2 L1340 71.3 L1360 70.2 L1380 70.1 L1400 70.9 L1420 72.6 L1440 75.1 L1460 78.0 L1480 81.1 L1500 84.2 L1520 86.8 L1540 88.7 L1560 89.8 L1580 89.9 L1600 89.1 L1620 87.4 L1640 84.9 L1660 82.0 L1680 78.9 L1700 75.8 L1720 73.2 L1740 71.3 L1760 70.2 L1780 70.1 L1800 70.9 L1820 72.6 L1840 75.1 L1860 78.0 L1880 81.1 L1900 84.2 L1920 86.8 L1940 88.7 L1960 89.8 L1980 89.9 L2000 89.1 L2020 87.4 L2040 84.9 L2060 82.0 L2080 78.9 L2100 75.8 L2120 73.2 L2140 71.3 L2160 70.2 L2180 70.1 L2200 70.9 L2220 72.6 L2240 75.1 L2260 78.0 L2280 81.1 L2300 84.2 L2320 86.8 L2340 88.7 L2360 89.8 L2380 89.9 L2400 89.1 L2400 140 L0 140Z" fill="url(#f)" fill-opacity=".45"><animateTransform attributeName="transform" type="translate" values="-400 0;0 0" dur="7s" repeatCount="indefinite"/></path>
<path d="M0 100 L0 106.7 L20 107.1 L40 107.5 L60 107.7 L80 107.9 L100 108.0 L120 108.0 L140 107.9 L160 107.7 L180 107.5 L200 107.1 L220 106.7 L240 106.2 L260 105.6 L280 105.0 L300 104.3 L320 103.6 L340 102.8 L360 102.0 L380 101.2 L400 100.4 L420 99.5 L440 98.7 L460 97.9 L480 97.1 L500 96.3 L520 95.6 L540 94.9 L560 94.3 L580 93.8 L600 93.3 L620 92.9 L640 92.5 L660 92.3 L680 92.1 L700 92.0 L720 92.0 L740 92.1 L760 92.3 L780 92.5 L800 92.9 L820 93.3 L840 93.8 L860 94.4 L880 95.0 L900 95.7 L920 96.4 L940 97.2 L960 98.0 L980 98.8 L1000 99.6 L1020 100.5 L1040 101.3 L1060 102.1 L1080 102.9 L1100 103.7 L1120 104.4 L1140 105.1 L1160 105.7 L1180 106.2 L1200 106.7 L1220 107.1 L1240 107.5 L1260 107.7 L1280 107.9 L1300 108.0 L1320 108.0 L1340 107.9 L1360 107.7 L1380 107.5 L1400 107.1 L1420 106.7 L1440 106.2 L1460 105.6 L1480 105.0 L1500 104.3 L1520 103.6 L1540 102.8 L1560 102.0 L1580 101.2 L1600 100.4 L1620 99.5 L1640 98.7 L1660 97.9 L1680 97.1 L1700 96.3 L1720 95.6 L1740 94.9 L1760 94.3 L1780 93.8 L1800 93.3 L1820 92.9 L1840 92.5 L1860 92.3 L1880 92.1 L1900 92.0 L1920 92.0 L1940 92.1 L1960 92.3 L1980 92.5 L2000 92.9 L2020 93.3 L2040 93.8 L2060 94.4 L2080 95.0 L2100 95.7 L2120 96.4 L2140 97.2 L2160 98.0 L2180 98.8 L2200 99.6 L2220 100.5 L2240 101.3 L2260 102.1 L2280 102.9 L2300 103.7 L2320 104.4 L2340 105.1 L2360 105.7 L2380 106.2 L2400 106.7 L2400 140 L0 140Z" fill="#05070f"><animateTransform attributeName="transform" type="translate" values="0 0;-1200 0" dur="14s" repeatCount="indefinite"/></path>
<text x="600" y="128" text-anchor="middle" font-family="'Courier New',Consolas,monospace" font-size="14" fill="#8aa0c8">// end of transmission - thanks for visiting</text></svg>