<svg xmlns="http://www.w3.org/2000/svg" viewBox="0 0 1200 400" role="img" aria-label="Featured projects">
<defs>
  <linearGradient id="bg" x1="0" x2="1"><stop stop-color="#04050b"/><stop offset=".5" stop-color="#10142a"/><stop offset="1" stop-color="#03040a"/></linearGradient>
  <linearGradient id="a" x1="0" x2="1"><stop stop-color="#ff2d55"/><stop offset=".55" stop-color="#d946ef"/><stop offset="1" stop-color="#22d3ee"/></linearGradient>
  <filter id="g"><feGaussianBlur stdDeviation="5" result="b"/><feMerge><feMergeNode in="b"/><feMergeNode in="SourceGraphic"/></feMerge></filter>
</defs>
<rect width="1200" height="400" rx="28" fill="url(#bg)"/>
<g font-family="Arial">
  <g transform="translate(40,48)">
    <rect width="260" height="300" rx="22" fill="#08101c" stroke="#ff2d55" stroke-opacity=".7" stroke-width="2"/>
    <rect x="18" y="18" width="72" height="5" rx="3" fill="#ff2d55"/>
    <text x="18" y="65" fill="#ff7a98" font-weight="700" font-size="13" letter-spacing="3">01 / FEATURED</text>
    <text x="18" y="110" fill="#fff" font-weight="800" font-size="30">CLANSURE</text>
    <text x="18" y="142" fill="#b9c6d8" font-size="14">Family insurance</text>
    <text x="18" y="162" fill="#b9c6d8" font-size="14">management + AI/RAG</text>
    <circle cx="130" cy="228" r="42" fill="#0a1523" stroke="#22d3ee" stroke-width="3" filter="url(#g)"/>
    <text x="130" y="235" text-anchor="middle" fill="#80efff" font-size="14" font-weight="700">CLARA</text>
    <text x="18" y="277" fill="#22d3ee" font-size="12" font-weight="700">LIVE SYSTEM ↗</text>
  </g>
  <g transform="translate(320,48)">
    <rect width="260" height="300" rx="22" fill="#08101c" stroke="#22d3ee" stroke-opacity=".7" stroke-width="2"/>
    <rect x="18" y="18" width="72" height="5" rx="3" fill="#22d3ee"/>
    <text x="18" y="65" fill="#80efff" font-weight="700" font-size="13" letter-spacing="3">02 / FEATURED</text>
    <text x="18" y="110" fill="#fff" font-weight="800" font-size="30">GT COMPANION</text>
    <text x="18" y="142" fill="#b9c6d8" font-size="14">Training + knowledge</text>
    <text x="18" y="162" fill="#b9c6d8" font-size="14">platform + AI/RAG</text>
    <circle cx="130" cy="228" r="42" fill="#0a1523" stroke="#a855f7" stroke-width="3" filter="url(#g)"/>
    <text x="130" y="235" text-anchor="middle" fill="#d6b4ff" font-size="14" font-weight="700">PICO</text>
    <text x="18" y="277" fill="#22d3ee" font-size="12" font-weight="700">LIVE SYSTEM ↗</text>
  </g>
  <g transform="translate(600,48)">
    <rect width="260" height="300" rx="22" fill="#08101c" stroke="#10b981" stroke-opacity=".7" stroke-width="2"/>
    <rect x="18" y="18" width="72" height="5" rx="3" fill="#10b981"/>
    <text x="18" y="65" fill="#91f5c8" font-weight="700" font-size="13" letter-spacing="3">03 / COMPUTER VISION</text>
    <text x="18" y="110" fill="#fff" font-weight="800" font-size="28">AI AGRI</text>
    <text x="18" y="142" fill="#b9c6d8" font-size="14">Quality grading +</text>
    <text x="18" y="162" fill="#b9c6d8" font-size="14">profit estimation</text>
    <circle cx="130" cy="228" r="42" fill="#0a1523" stroke="#10b981" stroke-width="3" filter="url(#g)"/>
    <text x="130" y="235" text-anchor="middle" fill="#91f5c8" font-size="14" font-weight="700">CV / ML</text>
    <text x="18" y="277" fill="#10b981" font-size="12" font-weight="700">REPOSITORY ↗</text>
  </g>
  <g transform="translate(880,48)">
    <rect width="260" height="300" rx="22" fill="#08101c" stroke="#a855f7" stroke-opacity=".7" stroke-width="2"/>
    <rect x="18" y="18" width="72" height="5" rx="3" fill="#a855f7"/>
    <text x="18" y="65" fill="#d6b4ff" font-weight="700" font-size="13" letter-spacing="3">04 / DEEP LEARNING</text>
    <text x="18" y="110" fill="#fff" font-weight="800" font-size="30">LUNG AI</text>
    <text x="18" y="142" fill="#b9c6d8" font-size="14">Histopathology image</text>
    <text x="18" y="162" fill="#b9c6d8" font-size="14">classification</text>
    <circle cx="130" cy="228" r="42" fill="#0a1523" stroke="#d946ef" stroke-width="3" filter="url(#g)"/>
    <text x="130" y="235" text-anchor="middle" fill="#efb9ff" font-size="14" font-weight="700">CNN</text>
    <text x="18" y="277" fill="#a855f7" font-size="12" font-weight="700">AI / CV PROJECT</text>
  </g>
</g>
</svg>