<svg xmlns="http://www.w3.org/2000/svg" viewBox="0 0 1200 300" role="img" aria-label="Technology DNA map"><defs><linearGradient id="g" x2="1"><stop stop-color="#ff2949"/><stop offset="1" stop-color="#22d3ee"/></linearGradient></defs><rect width="1200" height="300" rx="14" fill="#070a0f"/><path d="M120 60C380 60 360 240 600 240S820 60 1080 60M120 240C380 240 360 60 600 60S820 240 1080 240" fill="none" stroke="url(#g)" stroke-width="3" opacity=".75"/><g stroke="#41606a" stroke-width="2"><path d="M222 91L222 209M365 124L365 176M510 105L510 195M690 105L690 195M835 124L835 176M978 91L978 209"/></g><g font-family="Arial" text-anchor="middle"><g fill="#f5f7f8" font-size="17" font-weight="bold"><text x="120" y="35">AI</text><text x="300" y="278">APPS</text><text x="510" y="35">DATA</text><text x="690" y="278">CLOUD</text><text x="900" y="35">DELIVERY</text><text x="1080" y="278">PRODUCT</text></g><g fill="#93aab1" font-size="12"><text x="120" y="52">LLMs · RAG · CV</text><text x="300" y="295">React · FastAPI</text><text x="510" y="52">PostgreSQL · Redis</text><text x="690" y="295">Databricks · Fabric</text><text x="900" y="52">GitHub · CI/CD · Railway</text><text x="1080" y="295">Software × AI</text></g></g><g fill="#fff"><circle cx="120" cy="60" r="6"/><circle cx="300" cy="150" r="6"/><circle cx="510" cy="60" r="6"/><circle cx="690" cy="240" r="6"/><circle cx="900" cy="150" r="6"/><circle cx="1080" cy="60" r="6"/></g></svg>
