<svg xmlns="http://www.w3.org/2000/svg" viewBox="0 0 1200 310" role="img" aria-labelledby="title"><title id="title">Technical DNA network: AI, software, data, and cloud</title><defs><radialGradient id="bg"><stop stop-color="#112126"/><stop offset="1" stop-color="#06080b"/></radialGradient><filter id="g"><feGaussianBlur stdDeviation="4" result="b"/><feMerge><feMergeNode in="b"/><feMergeNode in="SourceGraphic"/></feMerge></filter></defs><rect width="1200" height="310" rx="14" fill="url(#bg)"/><g stroke="#5bdbe7" stroke-opacity=".38"><path d="M165 155L330 80 500 155 670 77 850 155 1035 85M165 155l165 76 170-76 170 75 180-75 185 74" fill="none" stroke-width="2"/></g><g font-family="Arial,sans-serif" text-anchor="middle"><g fill="#ff4a61" filter="url(#g)"><circle cx="165" cy="155" r="13"/><circle cx="500" cy="155" r="13"/><circle cx="850" cy="155" r="13"/></g><g fill="#59dce7" filter="url(#g)"><circle cx="330" cy="80" r="10"/><circle cx="670" cy="77" r="10"/><circle cx="1035" cy="85" r="10"/><circle cx="330" cy="231" r="10"/><circle cx="670" cy="230" r="10"/><circle cx="1035" cy="229" r="10"/></g><g fill="#fff" font-size="13" font-weight="700" letter-spacing="1"><text x="165" y="194">ARTIFICIAL INTELLIGENCE</text><text x="330" y="52">GENERATIVE AI</text><text x="500" y="194">SOFTWARE ENGINEERING</text><text x="670" y="49">LLMs / RAG</text><text x="850" y="194">DATA ENGINEERING</text><text x="1035" y="57">COMPUTER VISION</text><text x="330" y="267">MACHINE LEARNING</text><text x="670" y="266">CLOUD</text><text x="1035" y="265">PRODUCT SYSTEMS</text></g></g><text x="40" y="42" font-family="monospace" font-size="12" fill="#ff4a61" letter-spacing="3">TECH DNA / CONNECTED DISCIPLINES</text><rect x="1" y="1" width="1198" height="308" rx="13" fill="none" stroke="#ef3150" stroke-opacity=".45"/></svg>
